FFmpeg version SVN-r25716, Copyright (c) 2000-2010 the FFmpeg developers  built on Nov 10 2010 12:23:18 with gcc 4.1.2 20080704 (Red Hat 4.1.2-48)  configuration: --enable-libmp3lame --enable-shared --disable-mmx --arch=x86_64  libavutil     50.33. 0 / 50.33. 0  libavcore      0.12. 1 /  0.12. 1  libavcodec    52.94. 4 / 52.94. 4  libavformat   52.84. 0 / 52.84. 0  libavdevice   52. 2. 2 / 52. 2. 2  libavfilter    1.59. 0 /  1.59. 0  libswscale     0.12. 0 /  0.12. 0Seems stream 0 codec frame rate differs from container frame rate: 300.00 (300/1) -> 30.00 (30/1)Input #0, mov,mp4,m4a,3gp,3g2,mj2, from '/RAID10/data/converted_video_files/34517.mov':  Duration: 00:00:06.00, start: 0.000000, bitrate: 7515 kb/s    Stream #0.0(eng): Video: mjpeg, yuvj422p, 202x206 [PAR 1:1 DAR 101:103], 7512 kb/s, 30 fps, 30 tbr, 300 tbn, 300 tbc[buffer @ 0x19fc0b70] w:202 h:206 pixfmt:yuvj422p[ffsink @ 0x19fb38e0] auto-inserting filter 'auto-inserted scaler 0' between the filter 'src' and the filter 'out'[scale @ 0x19fb3bd0] w:202 h:206 fmt:yuvj422p -> w:202 h:206 fmt:yuv420p flags:0x4Output #0, flv, to '/RAID10/data/converted_video_files/34517.flv':  Metadata:    encoder         : Lavf52.84.0    Stream #0.0(eng): Video: flv, yuv420p, 202x206 [PAR 1:1 DAR 101:103], q=2-31, 600 kb/s, 1k tbn, 24 tbcStream mapping:  Stream #0.0 -> #0.0Press [q] to stop encodingframe=  139 fps=  0 q=2.5 size=     511kB time=5.79 bitrate= 722.3kbits/s dup=0 drop=34    frame=  144 fps=  0 q=2.7 Lsize=     523kB time=6.00 bitrate= 714.7kbits/s dup=0 drop=36    video:521kB audio:0kB global headers:0kB muxing overhead 0.471244%